<svg width="243" height="103" viewBox="0 0 243 103" fill="none" xmlns="http://www.w3.org/2000/svg">
<path d="M124.864 34.0485C126.254 34.0485 127.382 32.9202 127.382 31.5285C127.382 30.1367 126.254 29.0085 124.864 29.0085C123.473 29.0085 122.346 30.1367 122.346 31.5285C122.346 32.9202 123.473 34.0485 124.864 34.0485Z" fill="#1A2373"/>
<path d="M144.791 40.1614C145.815 40.6123 146.287 41.8141 145.751 42.7969C143.982 46.0408 141.478 48.8368 138.428 50.9541C134.823 53.4575 130.596 54.9143 126.214 55.1635C121.833 55.4127 117.468 54.4445 113.602 52.366C109.736 50.2873 106.52 47.1794 104.309 43.3858C102.098 39.5919 100.978 35.2603 101.074 30.8694C101.17 26.4786 102.476 22.1998 104.85 18.506C107.224 14.8122 110.573 11.8473 114.525 9.93912C117.868 8.32537 121.533 7.52055 125.225 7.57662C126.344 7.59361 127.156 8.59682 127.044 9.71099C126.932 10.8252 125.938 11.6265 124.819 11.6291C121.872 11.6359 118.955 12.3028 116.286 13.5915C113.006 15.1748 110.228 17.6348 108.258 20.6996C106.289 23.7644 105.204 27.3147 105.125 30.9576C105.046 34.6008 105.975 38.1948 107.809 41.3426C109.644 44.4903 112.312 47.069 115.52 48.7937C118.727 50.5184 122.349 51.3218 125.984 51.1149C129.62 50.9082 133.127 49.6994 136.119 47.6221C138.554 45.9315 140.57 43.7192 142.027 41.1558C142.58 40.1824 143.766 39.7104 144.791 40.1614Z" fill="#FC5223"/>
<path d="M137.336 36.9852C138.413 37.4562 138.916 38.7218 138.304 39.7262C137.173 41.5847 135.664 43.1953 133.868 44.4492C131.487 46.1107 128.694 47.0811 125.797 47.253C122.899 47.4248 120.011 46.7916 117.451 45.4232C114.891 44.0548 112.758 42.0046 111.29 39.4992C109.821 36.9938 109.074 34.1308 109.13 31.2268C109.186 28.3227 110.043 25.4908 111.607 23.0441C113.171 20.5973 115.381 18.631 117.992 17.3626C119.962 16.4054 122.103 15.8738 124.277 15.7925C125.451 15.7486 126.309 16.8058 126.194 17.9763C126.079 19.1469 125.032 19.982 123.861 20.0848C122.474 20.2066 121.114 20.5805 119.851 21.1943C117.946 22.1197 116.334 23.5542 115.193 25.3393C114.052 27.1245 113.426 29.1904 113.385 31.3092C113.344 33.4278 113.89 35.5166 114.961 37.3443C116.032 39.1721 117.588 40.668 119.456 41.6661C121.324 42.6646 123.431 43.1265 125.545 43.0012C127.659 42.8757 129.696 42.1679 131.433 40.9555C132.585 40.1516 133.575 39.1464 134.358 37.994C135.019 37.0215 136.259 36.5143 137.336 36.9852Z" fill="#FC5223"/>
<path d="M129.508 34.4918C130.462 35.1001 130.757 36.3959 129.915 37.1529C129.395 37.6208 128.81 38.0165 128.176 38.3262C126.924 38.9373 125.527 39.19 124.14 39.0562C122.754 38.9227 121.431 38.4076 120.318 37.5687C119.206 36.7295 118.347 35.5988 117.836 34.3015C117.326 33.0042 117.183 31.591 117.425 30.2178C117.667 28.8449 118.284 27.5655 119.207 26.5215C120.13 25.4772 121.324 24.7089 122.657 24.3013C123.332 24.0948 124.029 23.985 124.728 23.9723C125.86 23.9519 126.527 25.1007 126.244 26.1969L126.206 26.3408C125.943 27.3576 124.858 27.9158 123.854 28.223C123.245 28.4095 122.698 28.761 122.276 29.2388C121.854 29.7166 121.571 30.302 121.461 30.9302C121.35 31.5585 121.415 32.2051 121.649 32.7988C121.882 33.3923 122.275 33.9099 122.784 34.2937C123.293 34.6777 123.899 34.9134 124.533 34.9746C125.168 35.0356 125.807 34.9202 126.38 34.6404C127.323 34.18 128.497 33.8474 129.383 34.4119L129.508 34.4918Z" fill="#FC5223"/>
<path d="M125.126 21.9291C125.154 20.9007 126.015 20.0744 127.025 20.2684C128.181 20.4907 129.301 20.8908 130.342 21.4579C131.93 22.323 133.291 23.5519 134.313 25.0442C135.336 26.5365 135.991 28.2496 136.225 30.0439C136.379 31.2202 136.348 32.4094 136.139 33.5694C135.956 34.5816 134.875 35.0882 133.906 34.7437C132.938 34.3995 132.456 33.3307 132.56 32.3071C132.619 31.7167 132.611 31.1192 132.534 30.5265C132.376 29.3151 131.934 28.1587 131.243 27.1512C130.553 26.1437 129.634 25.3141 128.562 24.7301C128.038 24.4444 127.484 24.2214 126.912 24.0643C125.92 23.792 125.098 22.9574 125.126 21.9291Z" fill="#1A2373"/>
<path d="M125.368 14.0134C125.397 12.9759 126.263 12.1493 127.293 12.2768C129.755 12.5818 132.143 13.3487 134.331 14.543C137.069 16.038 139.415 18.1605 141.177 20.7367C142.939 23.313 144.066 26.2699 144.467 29.366C144.787 31.8391 144.637 34.3447 144.03 36.7518C143.776 37.7581 142.692 38.2669 141.715 37.9186C140.738 37.5701 140.24 36.4963 140.472 35.4845C140.893 33.6417 140.987 31.7338 140.743 29.8491C140.418 27.3414 139.504 24.9462 138.077 22.8595C136.65 20.7727 134.75 19.0535 132.532 17.8425C130.865 16.9324 129.054 16.3288 127.185 16.0547C126.159 15.9043 125.339 15.0509 125.368 14.0134Z" fill="#1A2373"/>
<path d="M80.1158 97.288C78.9478 97.288 77.8838 97.088 76.9238 96.688C75.9798 96.288 75.2278 95.696 74.6678 94.912C74.1078 94.112 73.8118 93.12 73.7798 91.936H77.0198C77.0518 92.72 77.3318 93.376 77.8598 93.904C78.4038 94.432 79.1478 94.696 80.0918 94.696C80.9078 94.696 81.5558 94.504 82.0358 94.12C82.5158 93.736 82.7558 93.216 82.7558 92.56C82.7558 92.224 82.6998 91.928 82.5878 91.672C82.4918 91.416 82.2998 91.176 82.0118 90.952C81.7238 90.728 81.3158 90.512 80.7878 90.304C80.2758 90.08 79.5958 89.832 78.7478 89.56C77.6438 89.192 76.7558 88.768 76.0838 88.288C75.4118 87.808 74.9238 87.272 74.6198 86.68C74.3318 86.072 74.1878 85.416 74.1878 84.712C74.1878 83.656 74.4358 82.776 74.9318 82.072C75.4438 81.352 76.1238 80.816 76.9718 80.464C77.8358 80.096 78.7878 79.912 79.8278 79.912C80.8838 79.912 81.8358 80.096 82.6838 80.464C83.5478 80.832 84.2438 81.376 84.7718 82.096C85.2998 82.816 85.5718 83.704 85.5878 84.76H82.2998C82.2838 84.152 82.0438 83.624 81.5798 83.176C81.1318 82.728 80.5078 82.504 79.7078 82.504C79.0678 82.504 78.5238 82.672 78.0758 83.008C77.6278 83.344 77.4038 83.84 77.4038 84.496C77.4038 84.976 77.5798 85.384 77.9318 85.72C78.2998 86.056 78.7878 86.352 79.3958 86.608C80.0198 86.848 80.7078 87.104 81.4598 87.376C81.8758 87.52 82.3398 87.704 82.8518 87.928C83.3798 88.152 83.8838 88.456 84.3638 88.84C84.8438 89.208 85.2358 89.68 85.5398 90.256C85.8598 90.816 86.0198 91.512 86.0198 92.344C86.0198 93.368 85.7558 94.248 85.2278 94.984C84.7158 95.72 84.0118 96.288 83.1158 96.688C82.2358 97.088 81.2358 97.288 80.1158 97.288ZM89.7126 83.56C89.1686 83.56 88.6966 83.368 88.2966 82.984C87.9126 82.584 87.7206 82.112 87.7206 81.568C87.7206 81.008 87.9126 80.536 88.2966 80.152C88.6966 79.768 89.1686 79.576 89.7126 79.576C90.2726 79.576 90.7446 79.768 91.1286 80.152C91.5126 80.536 91.7046 81.008 91.7046 81.568C91.7046 82.112 91.5126 82.584 91.1286 82.984C90.7446 83.368 90.2726 83.56 89.7126 83.56ZM88.1766 97V85.096H91.2486V97H88.1766ZM98.1741 97C96.8941 97 95.9261 96.688 95.2701 96.064C94.6301 95.44 94.3101 94.504 94.3101 93.256V87.664H92.7741V85.096H94.3101V82.192H97.3821V85.096H100.094V87.664H97.3821V93.28C97.3821 93.728 97.5021 94.032 97.7421 94.192C97.9821 94.352 98.2941 94.432 98.6781 94.432H100.094V97H98.1741ZM107.291 97.288C106.043 97.288 104.963 97.016 104.051 96.472C103.155 95.928 102.459 95.184 101.963 94.24C101.467 93.296 101.219 92.232 101.219 91.048C101.219 89.784 101.475 88.688 101.987 87.76C102.499 86.832 103.211 86.112 104.123 85.6C105.035 85.072 106.091 84.808 107.291 84.808C108.475 84.808 109.507 85.064 110.387 85.576C111.283 86.088 111.979 86.792 112.475 87.688C112.987 88.584 113.243 89.616 113.243 90.784C113.243 90.992 113.235 91.2 113.219 91.408C113.203 91.6 113.179 91.784 113.147 91.96H104.315C104.363 92.52 104.507 93.016 104.747 93.448C105.003 93.864 105.339 94.192 105.755 94.432C106.187 94.656 106.675 94.768 107.219 94.768C107.779 94.768 108.259 94.648 108.659 94.408C109.075 94.168 109.403 93.8 109.643 93.304H112.931C112.707 94.008 112.347 94.664 111.851 95.272C111.355 95.88 110.723 96.368 109.955 96.736C109.203 97.104 108.315 97.288 107.291 97.288ZM104.339 89.92H110.075C110.059 89.12 109.763 88.488 109.187 88.024C108.627 87.56 107.963 87.328 107.195 87.328C106.539 87.328 105.931 87.536 105.371 87.952C104.811 88.352 104.467 89.008 104.339 89.92ZM114.869 97V80.2H117.941V97H114.869ZM121.223 102.28L123.839 96.448L119.015 85.096H122.447L125.519 93.208L128.663 85.096H131.903L124.463 102.28H121.223ZM137.643 97C136.363 97 135.395 96.688 134.739 96.064C134.099 95.44 133.779 94.504 133.779 93.256V87.664H132.243V85.096H133.779V82.192H136.851V85.096H139.563V87.664H136.851V93.28C136.851 93.728 136.971 94.032 137.211 94.192C137.451 94.352 137.763 94.432 138.147 94.432H139.563V97H137.643ZM143.033 83.56C142.489 83.56 142.017 83.368 141.617 82.984C141.233 82.584 141.041 82.112 141.041 81.568C141.041 81.008 141.233 80.536 141.617 80.152C142.017 79.768 142.489 79.576 143.033 79.576C143.593 79.576 144.065 79.768 144.449 80.152C144.833 80.536 145.025 81.008 145.025 81.568C145.025 82.112 144.833 82.584 144.449 82.984C144.065 83.368 143.593 83.56 143.033 83.56ZM141.497 97V85.096H144.569V97H141.497ZM152.406 97.288C151.206 97.288 150.158 97.024 149.262 96.496C148.366 95.952 147.67 95.216 147.174 94.288C146.678 93.344 146.43 92.264 146.43 91.048C146.43 89.848 146.67 88.776 147.15 87.832C147.646 86.888 148.342 86.152 149.238 85.624C150.134 85.08 151.19 84.808 152.406 84.808C153.846 84.808 155.062 85.168 156.054 85.888C157.062 86.608 157.742 87.672 158.094 89.08H154.806C154.662 88.616 154.382 88.224 153.966 87.904C153.566 87.568 153.038 87.4 152.382 87.4C151.726 87.4 151.19 87.568 150.774 87.904C150.358 88.24 150.046 88.688 149.838 89.248C149.646 89.792 149.55 90.392 149.55 91.048C149.55 91.704 149.646 92.312 149.838 92.872C150.046 93.416 150.358 93.856 150.774 94.192C151.19 94.512 151.726 94.672 152.382 94.672C153.006 94.672 153.518 94.536 153.918 94.264C154.318 93.976 154.614 93.56 154.806 93.016H158.094C157.886 93.912 157.51 94.68 156.966 95.32C156.438 95.96 155.782 96.448 154.998 96.784C154.23 97.12 153.366 97.288 152.406 97.288ZM164.741 97.288C163.845 97.288 163.005 97.128 162.221 96.808C161.437 96.472 160.789 96 160.277 95.392C159.781 94.784 159.509 94.072 159.461 93.256H162.533C162.613 93.768 162.861 94.168 163.277 94.456C163.709 94.744 164.189 94.888 164.717 94.888C165.165 94.888 165.581 94.792 165.965 94.6C166.365 94.392 166.565 94.072 166.565 93.64C166.565 93.304 166.421 93.04 166.133 92.848C165.845 92.656 165.509 92.504 165.125 92.392C164.741 92.28 164.389 92.184 164.069 92.104C163.269 91.912 162.541 91.688 161.885 91.432C161.229 91.16 160.709 90.792 160.325 90.328C159.941 89.848 159.749 89.216 159.749 88.432C159.749 87.664 159.965 87.008 160.397 86.464C160.845 85.92 161.429 85.512 162.149 85.24C162.885 84.952 163.677 84.808 164.525 84.808C165.853 84.808 166.973 85.144 167.885 85.816C168.797 86.488 169.293 87.48 169.373 88.792H166.469C166.421 88.28 166.205 87.896 165.821 87.64C165.453 87.368 164.989 87.232 164.429 87.232C163.981 87.232 163.581 87.312 163.229 87.472C162.877 87.632 162.701 87.936 162.701 88.384C162.701 88.704 162.845 88.968 163.133 89.176C163.421 89.368 163.765 89.528 164.165 89.656C164.565 89.768 164.917 89.864 165.221 89.944C166.053 90.152 166.781 90.392 167.405 90.664C168.045 90.936 168.549 91.304 168.917 91.768C169.285 92.232 169.477 92.856 169.493 93.64C169.493 94.424 169.269 95.088 168.821 95.632C168.389 96.176 167.813 96.592 167.093 96.88C166.373 97.152 165.589 97.288 164.741 97.288Z" fill="#1A2373"/>
</svg>
