<svg width="209" height="90" viewBox="0 0 209 90" fill="none" xmlns="http://www.w3.org/2000/svg">
<path d="M44.8053 48.6404C46.792 48.6404 48.4025 47.0287 48.4025 45.0404C48.4025 43.0522 46.792 41.4404 44.8053 41.4404C42.8185 41.4404 41.208 43.0522 41.208 45.0404C41.208 47.0287 42.8185 48.6404 44.8053 48.6404Z" fill="#1A2373"/>
<path d="M73.2716 57.3732C74.735 58.0173 75.4098 59.7341 74.6439 61.1381C72.1165 65.7724 68.5391 69.7666 64.1828 72.7913C59.0319 76.3675 52.9932 78.4487 46.734 78.8047C40.4748 79.1608 34.2392 77.7777 28.7166 74.8084C23.1939 71.8387 18.5994 67.3989 15.4408 61.9794C12.2823 56.5596 10.6829 50.3716 10.8193 44.0989C10.9558 37.8263 12.8229 31.7138 16.2142 26.4369C19.6054 21.16 24.3888 16.9245 30.0354 14.1985C34.8107 11.8931 40.046 10.7434 45.321 10.8235C46.9193 10.8478 48.0797 12.2809 47.9196 13.8726C47.7596 15.4643 46.3387 16.609 44.7404 16.6127C40.5309 16.6224 36.3638 17.5752 32.5504 19.4162C27.8654 21.678 23.8966 25.1923 21.0828 29.5706C18.269 33.9489 16.7199 39.0208 16.6066 44.2249C16.4934 49.4295 17.8204 54.5638 20.4411 59.0605C23.0618 63.5573 26.874 67.2412 31.4562 69.705C36.0383 72.1689 41.2122 73.3165 46.4056 73.021C51.5989 72.7258 56.6095 70.9989 60.8834 68.0314C64.3619 65.6161 67.2422 62.4557 69.3233 58.7938C70.1132 57.4031 71.8086 56.7288 73.2716 57.3732Z" fill="#FC5223"/>
<path d="M62.621 52.8358C64.1595 53.5087 64.8786 55.3166 64.0048 56.7516C62.3886 59.4066 60.2335 61.7073 57.6669 63.4987C54.266 65.8722 50.2756 67.2585 46.1366 67.504C41.9976 67.7496 37.8712 66.8449 34.2139 64.8901C30.5565 62.9353 27.5105 60.0063 25.4127 56.4272C23.3149 52.8481 22.2469 48.7581 22.3269 44.6095C22.4069 40.4608 23.6318 36.4152 25.866 32.9199C28.1003 29.4245 31.2569 26.6155 34.9869 24.8035C37.8018 23.4361 40.8605 22.6766 43.9653 22.5605C45.6431 22.4977 46.8686 24.008 46.7046 25.6802C46.5406 27.3525 45.0445 28.5455 43.3718 28.6924C41.3897 28.8663 39.4472 29.4006 37.6424 30.2774C34.921 31.5994 32.6181 33.6487 30.988 36.1988C29.358 38.749 28.4644 41.7003 28.4061 44.7272C28.3477 47.7537 29.1268 50.7378 30.6573 53.3488C32.1878 55.9599 34.41 58.0969 37.0784 59.5228C39.7465 60.9492 42.757 61.609 45.7765 61.4301C48.7964 61.2508 51.7077 60.2396 54.1887 58.5076C55.8344 57.3592 57.2485 55.9232 58.3676 54.2769C59.3119 52.8877 61.0824 52.163 62.621 52.8358Z" fill="#FC5223"/>
<path d="M51.4382 49.2735C52.8016 50.1425 53.2225 51.9936 52.0206 53.0751C51.2778 53.7436 50.4422 54.3088 49.5357 54.7512C47.7467 55.6242 45.7517 55.9853 43.7707 55.7942C41.7893 55.6034 39.8997 54.8675 38.3105 53.6691C36.7208 52.4703 35.4937 50.855 34.7644 49.0017C34.0351 47.1484 33.832 45.1295 34.1777 43.1679C34.5234 41.2066 35.4044 39.3789 36.7233 37.8874C38.0421 36.3956 39.7476 35.298 41.6509 34.7157C42.6153 34.4207 43.6114 34.2638 44.6103 34.2457C46.2266 34.2165 47.1798 35.8577 46.7751 37.4237L46.7219 37.6293C46.3463 39.0819 44.7959 39.8793 43.3621 40.3181C42.4908 40.5845 41.7106 41.0867 41.1073 41.7693C40.5037 42.4518 40.1004 43.2881 39.9425 44.1856C39.7842 45.0831 39.8771 46.0068 40.2109 46.855C40.5447 47.7028 41.1062 48.4422 41.8332 48.9905C42.5606 49.5392 43.4254 49.8758 44.3319 49.9632C45.2384 50.0504 46.1514 49.8855 46.9701 49.4859C48.3176 48.8282 49.995 48.353 51.2598 49.1594L51.4382 49.2735Z" fill="#FC5223"/>
<path d="M45.1785 31.3265C45.2184 29.8574 46.449 28.677 47.8912 28.9542C49.5437 29.2717 51.1427 29.8434 52.6302 30.6535C54.8986 31.8893 56.8429 33.6449 58.3037 35.7767C59.7646 37.9087 60.7002 40.3559 61.0348 42.9191C61.2542 44.5996 61.211 46.2985 60.9114 47.9555C60.6502 49.4017 59.1063 50.1253 57.7224 49.6331C56.3389 49.1414 55.6508 47.6146 55.7986 46.1523C55.8839 45.3088 55.872 44.4553 55.7616 43.6085C55.5357 41.878 54.904 40.226 53.918 38.7867C52.9316 37.3474 51.6193 36.1623 50.0876 35.3281C49.3383 34.9199 48.5469 34.6013 47.7296 34.3769C46.3138 33.9879 45.1385 32.7957 45.1785 31.3265Z" fill="#1A2373"/>
<path d="M45.525 20.0189C45.5667 18.5368 46.8042 17.356 48.2747 17.5381C51.7918 17.9738 55.2038 19.0693 58.3287 20.7755C62.2407 22.9113 65.5922 25.9433 68.1089 29.6236C70.6259 33.304 72.2364 37.5282 72.8094 41.9512C73.267 45.4842 73.0522 49.0637 72.1846 52.5024C71.8216 53.9399 70.2737 54.6667 68.8783 54.1692C67.4826 53.6713 66.7711 52.1374 67.1016 50.692C67.7038 48.0593 67.8373 45.3337 67.4887 42.6413C67.0247 39.0589 65.7199 35.6372 63.6814 32.6561C61.6428 29.675 58.928 27.2191 55.7592 25.4891C53.3778 24.1889 50.7907 23.3266 48.1204 22.9351C46.6545 22.7202 45.4833 21.501 45.525 20.0189Z" fill="#1A2373"/>
<path d="M97.5677 53.8359C96.2749 53.8359 95.1166 53.626 94.0928 53.2059C93.0687 52.7861 92.246 52.1644 91.6251 51.3411C91.0207 50.5181 90.7017 49.5267 90.6682 48.3675H95.2511C95.318 49.0227 95.5446 49.5267 95.931 49.8795C96.317 50.2157 96.8206 50.3835 97.4418 50.3835C98.0796 50.3835 98.5832 50.2409 98.9527 49.9551C99.3218 49.6527 99.5066 49.2412 99.5066 48.7203C99.5066 48.2836 99.3556 47.9225 99.0534 47.6367C98.7678 47.3512 98.407 47.1161 97.9706 46.9311C97.5508 46.7464 96.9465 46.5365 96.1576 46.3011C95.0158 45.9483 94.0842 45.5955 93.3626 45.2427C92.6406 44.8899 92.0193 44.3693 91.4992 43.6803C90.9787 42.9916 90.7186 42.0927 90.7186 40.9839C90.7186 39.3376 91.3143 38.0524 92.5064 37.1283C93.6982 36.1876 95.2511 35.7172 97.1648 35.7172C99.112 35.7172 100.682 36.1876 101.874 37.1283C103.065 38.0524 103.703 39.3459 103.787 41.0091H99.1289C99.0951 40.4381 98.8854 39.9928 98.4994 39.6735C98.1131 39.3376 97.6181 39.1695 97.0138 39.1695C96.4932 39.1695 96.0734 39.3124 95.7547 39.5979C95.4356 39.8668 95.2763 40.2617 95.2763 40.7823C95.2763 41.3536 95.5446 41.7989 96.0821 42.1179C96.6191 42.4372 97.4584 42.7817 98.6001 43.1511C99.7415 43.5377 100.665 43.9071 101.37 44.2599C102.092 44.6127 102.713 45.1253 103.233 45.7971C103.754 46.4692 104.014 47.3343 104.014 48.3927C104.014 49.4007 103.754 50.3165 103.233 51.1395C102.73 51.9628 101.991 52.618 101.017 53.1051C100.044 53.5925 98.8937 53.8359 97.5677 53.8359ZM108.829 38.1363C108.074 38.1363 107.453 37.9181 106.966 37.4811C106.496 37.0275 106.261 36.4731 106.261 35.818C106.261 35.146 106.496 34.5916 106.966 34.1548C107.453 33.7012 108.074 33.4744 108.829 33.4744C109.568 33.4744 110.172 33.7012 110.642 34.1548C111.129 34.5916 111.373 35.146 111.373 35.818C111.373 36.4731 111.129 37.0275 110.642 37.4811C110.172 37.9181 109.568 38.1363 108.829 38.1363ZM110.97 39.5979V53.6595H106.664V39.5979H110.97ZM121.921 50.0055V53.6595H119.731C118.17 53.6595 116.952 53.2815 116.08 52.5255C115.206 51.7529 114.77 50.5012 114.77 48.7707V43.1763H113.058V39.5979H114.77V36.1707H119.076V39.5979H121.896V43.1763H119.076V48.8211C119.076 49.2412 119.177 49.5436 119.378 49.7283C119.58 49.9133 119.915 50.0055 120.385 50.0055H121.921ZM137.565 46.4019C137.565 46.8051 137.54 47.2252 137.489 47.6619H127.744C127.812 48.5356 128.089 49.2077 128.575 49.6779C129.079 50.1315 129.691 50.3583 130.413 50.3583C131.488 50.3583 132.235 49.9047 132.655 48.9975H137.237C137.003 49.9216 136.574 50.7532 135.953 51.4923C135.349 52.2317 134.585 52.8113 133.662 53.2311C132.738 53.6512 131.706 53.8611 130.565 53.8611C129.188 53.8611 127.963 53.5673 126.888 52.9791C125.814 52.3912 124.974 51.5513 124.37 50.4591C123.766 49.3672 123.464 48.0903 123.464 46.6287C123.464 45.1671 123.757 43.8905 124.345 42.7983C124.949 41.7064 125.788 40.8665 126.863 40.2783C127.937 39.6904 129.171 39.3963 130.565 39.3963C131.924 39.3963 133.133 39.6821 134.191 40.2531C135.248 40.8244 136.071 41.6391 136.658 42.6975C137.263 43.7559 137.565 44.9907 137.565 46.4019ZM133.158 45.2679C133.158 44.5288 132.906 43.9409 132.403 43.5039C131.899 43.0672 131.27 42.8487 130.514 42.8487C129.792 42.8487 129.18 43.0589 128.676 43.4787C128.189 43.8988 127.887 44.4953 127.769 45.2679H133.158Z" fill="#1A2373"/>
<path d="M144.29 35.0116V53.6595H139.984V35.0116H144.29ZM161.764 39.5979L152.951 60.3375H148.317L151.541 53.1807L145.824 39.5979H150.634L153.882 48.3927L157.105 39.5979H161.764ZM171.152 50.0055V53.6595H168.961C167.4 53.6595 166.183 53.2815 165.31 52.5255C164.437 51.7529 164.001 50.5012 164.001 48.7707V43.1763H162.288V39.5979H164.001V36.1707H168.307V39.5979H171.127V43.1763H168.307V48.8211C168.307 49.2412 168.407 49.5436 168.609 49.7283C168.81 49.9133 169.146 50.0055 169.616 50.0055H171.152ZM175.716 38.1363C174.961 38.1363 174.34 37.9181 173.853 37.4811C173.383 37.0275 173.148 36.4731 173.148 35.818C173.148 35.146 173.383 34.5916 173.853 34.1548C174.34 33.7012 174.961 33.4744 175.716 33.4744C176.455 33.4744 177.059 33.7012 177.529 34.1548C178.016 34.5916 178.259 35.146 178.259 35.818C178.259 36.4731 178.016 37.0275 177.529 37.4811C177.059 37.9181 176.455 38.1363 175.716 38.1363ZM177.857 39.5979V53.6595H173.551V39.5979H177.857ZM180.121 46.6287C180.121 45.1671 180.415 43.8905 181.002 42.7983C181.606 41.7064 182.437 40.8665 183.495 40.2783C184.569 39.6904 185.795 39.3963 187.171 39.3963C188.934 39.3963 190.403 39.8585 191.578 40.7823C192.77 41.7064 193.55 43.0085 193.92 44.6883H189.337C188.951 43.6133 188.204 43.0755 187.096 43.0755C186.307 43.0755 185.677 43.3865 185.207 44.0079C184.737 44.6127 184.502 45.4864 184.502 46.6287C184.502 47.7713 184.737 48.6533 185.207 49.2747C185.677 49.8795 186.307 50.1819 187.096 50.1819C188.204 50.1819 188.951 49.6444 189.337 48.5691H193.92C193.55 50.2157 192.77 51.5092 191.578 52.4499C190.386 53.3909 188.917 53.8611 187.171 53.8611C185.795 53.8611 184.569 53.5673 183.495 52.9791C182.437 52.3912 181.606 51.5513 181.002 50.4591C180.415 49.3672 180.121 48.0903 180.121 46.6287ZM201.939 53.8611C200.713 53.8611 199.622 53.6512 198.666 53.2311C197.709 52.8113 196.953 52.24 196.399 51.5175C195.845 50.7784 195.535 49.9551 195.468 49.0479H199.723C199.773 49.5353 200 49.9299 200.403 50.2323C200.806 50.5347 201.301 50.6859 201.889 50.6859C202.426 50.6859 202.837 50.5851 203.123 50.3835C203.425 50.1653 203.576 49.8881 203.576 49.5519C203.576 49.1487 203.366 48.8549 202.946 48.6699C202.526 48.4683 201.847 48.2501 200.907 48.0147C199.899 47.7796 199.06 47.5359 198.389 47.2839C197.717 47.0153 197.138 46.6035 196.651 46.0491C196.164 45.4781 195.921 44.7135 195.921 43.7559C195.921 42.9495 196.139 42.2187 196.576 41.5635C197.029 40.8917 197.683 40.3625 198.54 39.9759C199.413 39.5896 200.445 39.3963 201.637 39.3963C203.4 39.3963 204.784 39.8333 205.792 40.7067C206.816 41.5804 207.403 42.7396 207.554 44.1843H203.576C203.509 43.6972 203.291 43.3109 202.921 43.0251C202.569 42.7396 202.098 42.5967 201.511 42.5967C201.007 42.5967 200.621 42.6975 200.353 42.8991C200.084 43.0841 199.95 43.3444 199.95 43.6803C199.95 44.0835 200.159 44.3859 200.579 44.5875C201.016 44.7891 201.687 44.9907 202.594 45.1923C203.634 45.4612 204.482 45.7301 205.137 45.9987C205.792 46.2507 206.363 46.6708 206.849 47.2587C207.353 47.83 207.613 48.6029 207.63 49.5771C207.63 50.4004 207.395 51.1395 206.925 51.7947C206.472 52.4333 205.809 52.9373 204.936 53.3067C204.079 53.6764 203.08 53.8611 201.939 53.8611Z" fill="#FF5A3D"/>
</svg>
